<svg width="150" height="150" viewBox="0 0 150 150" fill="none" xmlns="http://www.w3.org/2000/svg">
<path d="M49.9313 21.8718C49.1135 22.709 48.6558 23.8328 48.6558 25.0031C48.6558 26.1733 49.1135 27.2972 49.9313 28.1343L95.6156 75L49.9313 121.856C49.1135 122.693 48.6558 123.817 48.6558 124.987C48.6558 126.158 49.1135 127.282 49.9313 128.119C50.3287 128.527 50.8039 128.851 51.3289 129.073C51.8538 129.294 52.4178 129.409 52.9875 129.409C53.5573 129.409 54.1212 129.294 54.6462 129.073C55.1711 128.851 55.6463 128.527 56.0438 128.119L104.625 78.2718C105.478 77.3965 105.956 76.2224 105.956 75C105.956 73.7775 105.478 72.6035 104.625 71.7281L56.0438 21.8812C55.6463 21.473 55.1711 21.1485 54.6462 20.927C54.1212 20.7054 53.5573 20.5913 52.9875 20.5913C52.4178 20.5913 51.8538 20.7054 51.3289 20.927C50.8039 21.1485 50.3287 21.473 49.9313 21.8812V21.8718Z" fill="white"/>
</svg>
