<svg width="150" height="150" viewBox="0 0 150 150" fill="none" xmlns="http://www.w3.org/2000/svg">
<path d="M89.2688 21.8812L40.6875 71.7187C39.8343 72.5941 39.3567 73.7682 39.3567 74.9906C39.3567 76.213 39.8343 77.3871 40.6875 78.2625L89.2688 128.119C89.6662 128.527 90.1414 128.851 90.6664 129.073C91.1913 129.294 91.7552 129.409 92.325 129.409C92.8948 129.409 93.4587 129.294 93.9837 129.073C94.5086 128.851 94.9838 128.527 95.3813 128.119C96.199 127.282 96.6567 126.158 96.6567 124.987C96.6567 123.817 96.199 122.693 95.3813 121.856L49.6969 74.9906L95.3813 28.1343C96.1962 27.2976 96.6522 26.1758 96.6522 25.0078C96.6522 23.8398 96.1962 22.718 95.3813 21.8812C94.9838 21.473 94.5086 21.1485 93.9837 20.927C93.4587 20.7054 92.8948 20.5913 92.325 20.5913C91.7552 20.5913 91.1913 20.7054 90.6664 20.927C90.1414 21.1485 89.6662 21.473 89.2688 21.8812Z" fill="white"/>
</svg>
