<svg width="40" height="40" viewBox="0 0 40 40" fill="none" xmlns="http://www.w3.org/2000/svg">
<rect x="0.5" y="0.5" width="39" height="39" stroke="#333333"/>
<path d="M25.5625 20.5234L20.3766 14.5469C20.3297 14.4928 20.2718 14.4494 20.2067 14.4197C20.1416 14.39 20.0708 14.3746 19.9993 14.3746C19.9277 14.3746 19.857 14.39 19.7919 14.4197C19.7268 14.4494 19.6688 14.4928 19.6219 14.5469L14.4375 20.5234C14.4219 20.5414 14.4117 20.5636 14.4083 20.5872C14.4048 20.6108 14.4083 20.6349 14.4181 20.6567C14.428 20.6784 14.4439 20.6968 14.464 20.7098C14.4841 20.7227 14.5074 20.7296 14.5313 20.7297H15.7969C15.8688 20.7297 15.9375 20.6984 15.986 20.6437L19.4063 16.7015V25.5C19.4063 25.5687 19.4625 25.625 19.5313 25.625H20.4688C20.5375 25.625 20.5938 25.5687 20.5938 25.5V16.7015L24.0141 20.6437C24.061 20.6984 24.1297 20.7297 24.2032 20.7297H25.4688C25.575 20.7297 25.6329 20.6047 25.5625 20.5234Z" fill="#333333"/>
</svg>
