<svg width="200" height="26" viewBox="0 0 200 26" fill="none" xmlns="http://www.w3.org/2000/svg">
<g clip-path="url(#clip0_8_101)">
<path d="M7.0911 19.9053H8.68858C12.9274 19.9053 16.5397 17.8088 16.5397 12.9951C16.5397 8.57988 13.3232 6.08864 8.76327 6.08864H7.0911V19.9053ZM0 0.646737H10.061C17.6722 0.646737 23.9295 6.05583 23.9295 12.9951C23.9295 19.9494 17.6264 25.335 10.061 25.335H0V0.646737Z" fill="#FF6F00"/>
<path d="M32.8668 6.08883V10.2209H40.8682V15.6487H32.8668V19.9055H41.3014V25.3352H25.772V0.646925H41.3014V6.08883H32.8668Z" fill="#FF6F00"/>
<path d="M55.6726 15.649L62.3006 0.647168H70.0117L58.3541 25.3354H52.8502L41.3831 0.647168H49.0848L55.6726 15.649Z" fill="#FF6F00"/>
<path d="M85.3178 7.00303C84.0181 6.02229 82.3572 5.3744 80.6112 5.3744C79.3135 5.3744 77.5722 6.05604 77.5722 7.43246C77.5722 8.87919 79.4918 9.42957 80.7242 9.79055L82.5346 10.279C86.3383 11.2945 89.269 13.0319 89.269 17.0242C89.269 19.4817 88.6164 22.003 86.4419 23.6794C84.3104 25.3062 81.4478 26 78.6926 26C75.2567 26 71.8862 24.9508 69.103 23.1881L72.1374 18.0069C73.9216 19.4198 76.0149 20.5553 78.4452 20.5553C80.1117 20.5553 81.8848 19.808 81.8848 18.0734C81.8848 16.2826 79.0885 15.6488 77.5722 15.2559C73.1233 14.1129 70.1814 13.06 70.1814 8.28943C70.1814 3.27414 74.1438 1.56765e-06 79.602 1.56765e-06C82.3572 1.56765e-06 85.7183 0.791347 88.1449 2.03743L85.3178 7.00303Z" fill="#FF6F00"/>
<path d="M98.2833 25.3355H91.1801V0.647226H98.2833V25.3355Z" fill="#FF6F00"/>
<path d="M116.452 7.00303C115.15 6.02229 113.478 5.3744 111.752 5.3744C110.439 5.3744 108.708 6.05604 108.708 7.43246C108.708 8.87919 110.626 9.42957 111.855 9.79055L113.665 10.279C117.468 11.2945 120.399 13.0319 120.399 17.0242C120.399 19.4817 119.742 22.003 117.57 23.6794C115.434 25.3062 112.581 26 109.827 26C106.394 26 103.02 24.9508 100.235 23.1881L103.277 18.0069C105.045 19.4198 107.152 20.5553 109.576 20.5553C111.24 20.5553 113.009 19.808 113.009 18.0734C113.009 16.2826 110.219 15.6488 108.708 15.2559C104.254 14.1129 101.321 13.06 101.321 8.28943C101.321 3.27414 105.268 1.56765e-06 110.731 1.56765e-06C113.478 1.56765e-06 116.848 0.791347 119.277 2.03743L116.452 7.00303Z" fill="#FF6F00"/>
<path d="M133.174 25.335H126.081V6.08865H120.218V0.646742H139.039V6.08865H133.174V25.335Z" fill="#FF6F00"/>
<path d="M147.261 6.08883V10.2209H155.259V15.6487H147.261V19.9055H155.699V25.3352H140.17V0.646925H155.699V6.08883H147.261Z" fill="#FF6F00"/>
<path d="M165.726 11.7251H166.407C168.729 11.7251 171.334 11.3294 171.334 8.63657C171.334 5.96531 168.729 5.56589 166.407 5.56589H165.726V11.7251ZM181.326 25.3354H172.493L165.79 15.8449H165.726V25.3354H158.627V0.647171H169.233C174.631 0.647171 178.726 2.98933 178.726 8.25027C178.726 11.6604 176.612 14.5988 172.748 15.2233L181.326 25.3354Z" fill="#FF6F00"/>
<path d="M196.051 7.00303C194.754 6.02229 193.09 5.3744 191.351 5.3744C190.039 5.3744 188.314 6.05604 188.314 7.43246C188.314 8.87919 190.227 9.42957 191.454 9.79055L193.266 10.279C197.068 11.2945 200 13.0319 200 17.0242C200 19.4817 199.358 22.003 197.172 23.6794C195.037 25.3062 192.18 26 189.432 26C185.991 26 182.628 24.9508 179.834 23.1881L182.874 18.0069C184.657 19.4198 186.751 20.5553 189.175 20.5553C190.839 20.5553 192.616 19.808 192.616 18.0734C192.616 16.2826 189.832 15.6488 188.314 15.2559C183.851 14.1129 180.924 13.06 180.924 8.28943C180.924 3.27414 184.866 1.56765e-06 190.337 1.56765e-06C193.09 1.56765e-06 196.446 0.791347 198.882 2.03743L196.051 7.00303Z" fill="#FF6F00"/>
</g>
<defs>
<clipPath id="clip0_8_101">
<rect width="200" height="26" fill="white"/>
</clipPath>
</defs>
</svg>
