<svg width="40" height="40" viewBox="0 0 40 40" fill="none" xmlns="http://www.w3.org/2000/svg">
<rect x="0.5" y="0.5" width="39" height="39" stroke="white"/>
<path d="M25.5625 20.5235L20.3765 14.5469C20.3297 14.4928 20.2717 14.4495 20.2066 14.4197C20.1415 14.39 20.0708 14.3746 19.9992 14.3746C19.9276 14.3746 19.8569 14.39 19.7918 14.4197C19.7267 14.4495 19.6687 14.4928 19.6219 14.5469L14.4375 20.5235C14.4218 20.5415 14.4117 20.5636 14.4082 20.5873C14.4048 20.6109 14.4082 20.635 14.4181 20.6567C14.428 20.6785 14.4439 20.6969 14.4639 20.7098C14.484 20.7228 14.5074 20.7297 14.5312 20.7297H15.7969C15.8687 20.7297 15.9375 20.6985 15.9859 20.6438L19.4062 16.7016V25.5C19.4062 25.5688 19.4625 25.625 19.5312 25.625H20.4687C20.5375 25.625 20.5937 25.5688 20.5937 25.5V16.7016L24.014 20.6438C24.0609 20.6985 24.1297 20.7297 24.2031 20.7297H25.4687C25.575 20.7297 25.6328 20.6047 25.5625 20.5235Z" fill="white"/>
</svg>
